<svg xmlns="http://www.w3.org/2000/svg" viewBox="0 0 2048 1152">
<path d="M1026.0,578.5 L1025.0,578.5 L1024.0,578.5 L1023.0,578.5 L1022.0,578.5 L1021.0,578.5 L1020.0,578.5 L1019.0,578.5 L1018.0,578.5 L1017.0,578.5 L1016.0,578.5 L1015.0,578.5 L1014.0,578.5 L1013.0,578.5 L1012.0,578.5 L1011.0,578.5 L1010.0,578.5 L1009.0,578.5 L1008.0,578.5 L1007.0,578.5 L1006.0,578.5 L1005.0,578.5 L1004.0,578.5 L1003.0,578.5 L1002.0,578.5 L1001.0,578.5 L1000.0,578.5 L999.0,578.5 L998.0,578.5 L997.0,578.5 L996.0,578.5 L995.0,578.5 L994.0,578.5 L993.0,578.5 L992.0,578.5 L991.0,578.5 L990.0,578.5 L989.0,578.5 L988.0,578.5 L987.0,578.5 L986.0,578.5 L985.0,578.5 L984.0,578.5 L983.0,578.5 L982.0,578.5 L981.0,578.5 L980.0,578.5 L979.0,578.5 L978.0,578.5 L977.0,578.5 L976.0,578.5 L975.0,578.5 L974.0,578.5 L973.0,578.5 L972.0,578.5 L971.0,578.5 L970.0,578.5 L969.0,578.5 L968.0,578.5 L967.0,578.5 L966.0,578.5 L965.0,578.5 L964.0,578.5 L963.0,578.5 L962.0,578.5 L961.0,578.5 L960.0,578.5 L959.0,578.5 L958.0,578.5 L957.0,578.5 L956.0,578.5 L955.0,578.5 L954.0,578.5 L953.0,578.5 L952.0,578.5 L951.0,578.5 L950.0,578.5 L949.0,578.5 L948.0,578.5 L947.0,578.5 L946.0,578.5 L945.0,578.5 L944.0,578.5 L943.0,578.5 L942.0,578.5 L941.0,578.5 L940.0,578.5 L939.0,578.5 L938.0,578.5 L937.0,578.5 L936.0,578.5 L935.0,578.5 L934.0,578.5 L933.0,578.5 L932.0,578.5 L931.0,578.5 L930.0,578.5 L929.0,578.5 L928.0,578.5 L927.0,578.5 L926.0,578.5 L925.0,578.5 L924.0,578.5 L923.0,578.5 L922.0,578.5 L921.0,578.5 L920.0,578.5 L919.0,578.5 L918.0,578.5 L917.0,578.5 L916.0,578.5 L915.0,578.5 L914.0,578.5 L913.0,578.5 L912.0,578.5 L911.0,578.5 L910.0,578.5 L909.0,578.5 L908.0,578.5 L907.0,578.5 L906.0,578.5 L905.0,578.5 L904.0,578.5 L903.0,578.5 L902.0,578.5 L901.0,578.5 L900.0,578.5 L899.0,578.5 L898.0,578.5 L897.0,578.5 L896.0,578.5 L895.0,578.5 L894.0,578.5 L893.0,578.5 L892.0,578.5 L891.0,578.5 L890.0,578.5 L889.0,578.5 L888.0,578.5 L887.0,578.5 L886.0,578.5 L885.0,578.5 L884.0,578.5 L883.0,578.5 L882.0,578.5 L881.0,578.5 L880.0,578.5 L879.0,578.5 L878.0,578.5 L877.0,578.5 L876.0,578.5 L875.0,578.5 L874.0,578.5 L873.0,578.5 L872.0,578.5 L871.0,578.5 L870.0,578.5 L869.0,578.5 L868.0,578.5 L867.0,578.5 L866.0,578.5 L865.0,578.5 L864.0,578.5 L863.0,578.5 L862.0,578.5 L861.0,578.5 L860.0,578.5 L859.0,578.5 L858.0,578.5 L857.0,578.5 L856.0,578.5 L855.0,578.5 L854.0,578.5 L853.0,578.5 L852.0,578.5 L851.0,578.5 L850.0,578.5 L849.0,578.5 L848.0,578.5 L847.0,578.5 L846.0,578.5 L845.0,578.5 L844.0,578.5 L843.0,578.5 L842.0,578.5 L841.0,578.5 L840.0,578.5 L839.0,578.5 L838.0,578.5 L837.0,578.5 L836.0,578.5 L835.0,578.5 L834.0,578.5 L833.0,578.5 L832.0,578.5 L831.0,578.5 L830.0,578.5 L829.0,578.5 L828.0,578.5 L827.0,578.5 L826.0,578.5 L825.0,578.5 L824.0,578.5 L823.0,578.5 L822.0,578.5 L821.0,578.5 L820.0,578.5 L819.0,578.5 L818.0,578.5 L817.0,578.5 L816.0,578.5 L815.0,578.5 L814.0,578.5 L813.0,578.5 L812.0,578.5 L811.0,578.5 L810.0,578.5 L809.0,578.5 L808.5,578.0 L808.5,577.0 L808.0,576.5 L807.5,576.0 L807.0,575.5 L806.5,575.0 L806.0,574.5 L805.5,574.0 L805.0,573.5 L804.5,573.0 L804.0,572.5 L803.5,572.0 L803.0,571.5 L802.5,571.0 L802.0,570.5 L801.5,570.0 L801.5,569.0 L801.0,568.5 L800.5,568.0 L800.0,567.5 L799.5,567.0 L799.0,566.5 L798.5,566.0 L798.0,565.5 L797.5,565.0 L797.0,564.5 L796.5,564.0 L796.0,563.5 L795.5,563.0 L795.0,562.5 L794.5,562.0 L794.0,561.5 L793.5,561.0 L793.5,560.0 L793.0,559.5 L792.5,559.0 L792.0,558.5 L791.5,558.0 L791.0,557.5 L790.5,557.0 L790.0,556.5 L789.5,556.0 L789.0,555.5 L788.5,555.0 L788.0,554.5 L787.5,554.0 L787.0,553.5 L786.5,553.0 L786.5,552.0 L786.0,551.5 L785.5,551.0 L785.0,550.5 L784.5,550.0 L784.0,549.5 L783.5,549.0 L783.0,548.5 L782.5,548.0 L782.0,547.5 L781.5,547.0 L781.0,546.5 L780.5,546.0 L780.0,545.5 L779.5,545.0 L779.5,544.0 L779.0,543.5 L778.5,543.0 L778.0,542.5 L777.5,542.0 L777.0,541.5 L776.5,541.0 L776.0,540.5 L775.5,540.0 L775.0,539.5 L774.5,539.0 L774.0,538.5 L773.5,538.0 L773.0,537.5 L772.5,537.0 L772.0,536.5 L771.5,536.0 L771.5,535.0 L771.0,534.5 L770.5,534.0 L770.0,533.5 L769.5,533.0 L769.0,532.5 L768.5,532.0 L768.0,531.5 L767.5,531.0 L767.0,530.5 L766.5,530.0 L767.0,529.5 L767.5,529.0 L768.0,528.5 L768.5,528.0 L769.0,527.5 L769.5,527.0 L770.0,526.5 L770.5,526.0 L771.0,525.5 L771.5,525.0 L772.0,524.5 L772.5,524.0 L773.0,523.5 L773.5,523.0 L774.0,522.5 L774.5,522.0 L775.0,521.5 L775.5,521.0 L776.0,520.5 L776.5,520.0 L777.0,519.5 L778.0,519.5 L778.5,519.0 L779.0,518.5 L779.5,518.0 L780.0,517.5 L780.5,517.0 L781.0,516.5 L781.5,516.0 L782.0,515.5 L782.5,515.0 L783.0,514.5 L783.5,514.0 L784.0,513.5 L784.5,513.0 L785.0,512.5 L785.5,512.0 L786.0,511.5 L786.5,511.0 L787.0,510.5 L788.0,510.5 L788.5,510.0 L789.0,509.5 L789.5,509.0 L790.0,508.5 L790.5,508.0 L791.0,507.5 L791.5,507.0 L792.0,506.5 L792.5,506.0 L793.0,505.5 L793.5,505.0 L794.0,504.5 L794.5,504.0 L795.0,503.5 L795.5,503.0 L796.0,502.5 L797.0,502.5 L797.5,502.0 L798.0,501.5 L798.5,501.0 L799.0,500.5 L799.5,500.0 L800.0,499.5 L800.5,499.0 L801.0,498.5 L801.5,498.0 L802.0,497.5 L802.5,497.0 L803.0,496.5 L803.5,496.0 L804.0,495.5 L804.5,495.0 L805.0,494.5 L805.5,494.0 L806.0,493.5 L806.5,493.0 L807.0,492.5 L808.0,492.5 L808.5,492.0 L809.0,491.5 L809.5,491.0 L810.0,490.5 L810.5,490.0 L811.0,489.5 L811.5,489.0 L812.0,488.5 L812.5,488.0 L813.0,487.5 L813.5,487.0 L814.0,486.5 L814.5,486.0 L815.0,485.5 L815.5,485.0 L816.0,484.5 L816.5,484.0 L817.0,483.5 L818.0,483.5 L818.5,483.0 L819.0,482.5 L819.5,482.0 L820.0,481.5 L820.5,481.0 L821.0,480.5 L821.5,480.0 L822.0,479.5 L822.5,479.0 L823.0,478.5 L823.5,478.0 L824.0,477.5 L824.5,477.0 L825.0,476.5 L825.5,476.0 L826.0,475.5 L826.5,475.0 L827.0,474.5 L827.5,474.0 L828.0,473.5 L829.0,473.5 L829.5,473.0 L830.0,472.5 L830.5,472.0 L831.0,471.5 L831.5,471.0 L832.0,470.5 L832.5,470.0 L833.0,469.5 L833.5,469.0 L834.0,468.5 L834.5,468.0 L835.0,467.5 L835.5,467.0 L836.0,466.5 L836.5,466.0 L837.0,465.5 L837.5,465.0 L838.0,464.5 L839.0,464.5 L839.5,464.0 L840.0,463.5 L840.5,463.0 L841.0,462.5 L841.5,462.0 L842.0,461.5 L842.5,461.0 L843.0,460.5 L844.0,460.5 L844.5,460.0 L845.0,459.5 L845.5,459.0 L846.0,458.5 L846.5,458.0 L846.5,457.0 L847.0,456.5 L847.5,456.0 L848.0,455.5 L849.0,455.5 L849.5,455.0 L850.0,454.5 L850.5,454.0 L851.0,453.5 L851.5,453.0 L852.0,452.5 L852.5,452.0 L853.0,451.5 L853.5,451.0 L854.0,450.5 L854.5,450.0 L855.0,449.5 L855.5,449.0 L856.0,448.5 L856.5,448.0 L857.0,447.5 L857.5,447.0 L858.0,446.5 L859.0,446.5 L859.5,446.0 L860.0,445.5 L860.5,445.0 L861.0,444.5 L861.5,444.0 L862.0,443.5 L862.5,443.0 L863.0,442.5 L863.5,442.0 L864.0,441.5 L865.0,441.5 L865.5,441.0 L866.0,440.5 L866.5,440.0 L867.0,439.5 L867.5,439.0 L868.0,438.5 L868.5,438.0 L869.0,437.5 L869.5,437.0 L870.0,436.5 L870.5,436.0 L871.0,435.5 L871.5,435.0 L872.0,434.5 L872.5,434.0 L873.0,433.5 L873.5,433.0 L874.0,432.5 L874.5,432.0 L875.0,431.5 L875.5,431.0 L876.0,430.5 L876.5,430.0 L877.0,429.5 L877.5,429.0 L878.0,428.5 L878.5,428.0 L879.0,427.5 L880.0,427.5 L880.5,427.0 L881.0,426.5 L881.5,426.0 L882.0,425.5 L882.5,425.0 L883.0,424.5 L883.5,424.0 L884.0,423.5 L884.5,423.0 L885.0,422.5 L886.0,422.5 L886.5,422.0 L887.0,421.5 L887.5,421.0 L888.0,420.5 L888.5,420.0 L889.0,419.5 L889.5,419.0 L890.0,418.5 L890.5,418.0 L891.0,417.5 L891.5,417.0 L892.0,416.5 L892.5,416.0 L893.0,415.5 L893.5,415.0 L894.0,414.5 L894.5,414.0 L895.0,413.5 L895.5,413.0 L896.0,412.5 L896.5,412.0 L897.0,411.5 L897.5,411.0 L898.0,410.5 L898.5,410.0 L899.0,409.5 L900.0,409.5 L900.5,409.0 L901.0,408.5 L901.5,408.0 L902.0,407.5 L902.5,407.0 L903.0,406.5 L903.5,406.0 L904.0,405.5 L904.5,405.0 L905.0,404.5 L905.5,404.0 L906.0,403.5 L907.0,403.5 L907.5,403.0 L908.0,402.5 L908.5,402.0 L909.0,401.5 L909.5,401.0 L910.0,400.5 L910.5,400.0 L911.0,399.5 L911.5,399.0 L912.0,398.5 L912.5,398.0 L913.0,397.5 L913.5,397.0 L914.0,396.5 L914.5,396.0 L915.0,395.5 L916.0,395.5 L916.5,395.0 L917.0,394.5 L917.5,394.0 L917.5,393.0 L918.0,392.5 L918.5,392.0 L919.0,391.5 L919.5,391.0 L920.0,390.5 L921.0,390.5 L921.5,390.0 L922.0,389.5 L922.5,389.0 L923.0,388.5 L923.5,388.0 L924.0,387.5 L924.5,387.0 L925.0,386.5 L925.5,386.0 L926.0,385.5 L926.5,385.0 L927.0,384.5 L928.0,384.5 L928.5,384.0 L929.0,383.5 L929.5,383.0 L930.0,382.5 L930.5,382.0 L931.0,381.5 L931.5,381.0 L932.0,380.5 L932.5,380.0 L933.0,379.5 L933.5,379.0 L934.0,378.5 L934.5,378.0 L935.0,377.5 L935.5,377.0 L936.0,376.5 L937.0,376.5 L937.5,376.0 L938.0,375.5 L938.5,375.0 L939.0,374.5 L939.5,374.0 L940.0,373.5 L940.5,373.0 L941.0,372.5 L941.5,372.0 L942.0,371.5 L942.5,371.0 L943.0,370.5 L943.5,370.0 L944.0,369.5 L944.5,369.0 L945.0,368.5 L945.5,368.0 L946.0,367.5 L946.5,367.0 L947.0,366.5 L947.5,366.0 L948.0,365.5 L949.0,365.5 L949.5,365.0 L950.0,364.5 L950.5,364.0 L951.0,363.5 L951.5,363.0 L952.0,362.5 L952.5,362.0 L953.0,361.5 L953.5,361.0 L954.0,360.5 L954.5,360.0 L955.0,359.5 L955.5,359.0 L956.0,358.5 L957.0,358.5 L957.5,358.0 L958.0,357.5 L958.5,357.0 L959.0,356.5 L959.5,356.0 L960.0,355.5 L960.5,355.0 L961.0,354.5 L961.5,354.0 L962.0,353.5 L962.5,353.0 L963.0,352.5 L963.5,352.0 L964.0,351.5 L964.5,351.0 L965.0,350.5 L965.5,350.0 L966.0,349.5 L966.5,349.0 L967.0,348.5 L967.5,348.0 L968.0,347.5 L968.5,347.0 L969.0,346.5 L970.0,346.5 L970.5,346.0 L971.0,345.5 L971.5,345.0 L972.0,344.5 L972.5,344.0 L973.0,343.5 L973.5,343.0 L974.0,342.5 L974.5,342.0 L975.0,341.5 L975.5,341.0 L976.0,340.5 L976.5,340.0 L977.0,339.5 L978.0,339.5 L978.5,339.0 L979.0,338.5 L979.5,338.0 L980.0,337.5 L980.5,337.0 L981.0,336.5 L981.5,336.0 L982.0,335.5 L982.5,335.0 L983.0,334.5 L983.5,334.0 L984.0,333.5 L984.5,333.0 L985.0,332.5 L985.5,332.0 L986.0,331.5 L986.5,331.0 L987.0,330.5 L988.0,330.5 L988.5,330.0 L988.5,329.0 L989.0,328.5 L990.0,328.5 L990.5,328.0 L991.0,327.5 L991.5,327.0 L992.0,326.5 L992.5,326.0 L993.0,325.5 L993.5,325.0 L994.0,324.5 L994.5,324.0 L995.0,323.5 L995.5,323.0 L996.0,322.5 L996.5,322.0 L997.0,321.5 L997.5,321.0 L998.0,320.5 L999.0,320.5 L999.5,320.0 L1000.0,319.5 L1000.5,319.0 L1001.0,318.5 L1001.5,318.0 L1002.0,317.5 L1002.5,317.0 L1003.0,316.5 L1003.5,316.0 L1004.0,315.5 L1004.5,315.0 L1005.0,314.5 L1005.5,314.0 L1006.0,313.5 L1006.5,313.0 L1007.0,312.5 L1007.5,312.0 L1008.0,311.5 L1009.0,311.5 L1009.5,311.0 L1010.0,310.5 L1010.5,310.0 L1011.0,309.5 L1011.5,309.0 L1012.0,308.5 L1012.5,308.0 L1013.0,307.5 L1013.5,307.0 L1014.0,306.5 L1014.5,306.0 L1015.0,305.5 L1015.5,305.0 L1016.0,304.5 L1016.5,304.0 L1017.0,303.5 L1017.5,303.0 L1018.0,302.5 L1019.0,302.5 L1019.5,302.0 L1020.0,301.5 L1020.5,301.0 L1021.0,300.5 L1021.5,300.0 L1022.0,299.5 L1022.5,299.0 L1023.0,298.5 L1024.0,298.5 L1025.0,298.5 L1026.0,298.5 L1027.0,298.5 L1028.0,298.5 L1029.0,298.5 L1030.0,298.5 L1031.0,298.5 L1032.0,298.5 L1033.0,298.5 L1034.0,298.5 L1035.0,298.5 L1036.0,298.5 L1037.0,298.5 L1038.0,298.5 L1039.0,298.5 L1040.0,298.5 L1041.0,298.5 L1042.0,298.5 L1043.0,298.5 L1044.0,298.5 L1045.0,298.5 L1046.0,298.5 L1047.0,298.5 L1048.0,298.5 L1049.0,298.5 L1050.0,298.5 L1051.0,298.5 L1052.0,298.5 L1053.0,298.5 L1054.0,298.5 L1055.0,298.5 L1056.0,298.5 L1057.0,298.5 L1058.0,298.5 L1059.0,298.5 L1060.0,298.5 L1061.0,298.5 L1062.0,298.5 L1063.0,298.5 L1064.0,298.5 L1065.0,298.5 L1066.0,298.5 L1067.0,298.5 L1068.0,298.5 L1069.0,298.5 L1070.0,298.5 L1071.0,298.5 L1072.0,298.5 L1073.0,298.5 L1074.0,298.5 L1075.0,298.5 L1076.0,298.5 L1077.0,298.5 L1078.0,298.5 L1079.0,298.5 L1080.0,298.5 L1081.0,298.5 L1082.0,298.5 L1083.0,298.5 L1084.0,298.5 L1085.0,298.5 L1086.0,298.5 L1087.0,298.5 L1088.0,298.5 L1089.0,298.5 L1090.0,298.5 L1091.0,298.5 L1092.0,298.5 L1093.0,298.5 L1094.0,298.5 L1095.0,298.5 L1096.0,298.5 L1097.0,298.5 L1098.0,298.5 L1099.0,298.5 L1100.0,298.5 L1101.0,298.5 L1102.0,298.5 L1103.0,298.5 L1104.0,298.5 L1105.0,298.5 L1106.0,298.5 L1107.0,298.5 L1108.0,298.5 L1109.0,298.5 L1110.0,298.5 L1111.0,298.5 L1112.0,298.5 L1113.0,298.5 L1114.0,298.5 L1115.0,298.5 L1116.0,298.5 L1117.0,298.5 L1118.0,298.5 L1119.0,298.5 L1120.0,298.5 L1121.0,298.5 L1122.0,298.5 L1123.0,298.5 L1124.0,298.5 L1125.0,298.5 L1126.0,298.5 L1127.0,298.5 L1128.0,298.5 L1129.0,298.5 L1130.0,298.5 L1131.0,298.5 L1132.0,298.5 L1133.0,298.5 L1134.0,298.5 L1135.0,298.5 L1136.0,298.5 L1137.0,298.5 L1138.0,298.5 L1139.0,298.5 L1140.0,298.5 L1141.0,298.5 L1142.0,298.5 L1143.0,298.5 L1144.0,298.5 L1145.0,298.5 L1146.0,298.5 L1147.0,298.5 L1148.0,298.5 L1149.0,298.5 L1150.0,298.5 L1151.0,298.5 L1152.0,298.5 L1153.0,298.5 L1154.0,298.5 L1155.0,298.5 L1156.0,298.5 L1157.0,298.5 L1158.0,298.5 L1159.0,298.5 L1160.0,298.5 L1161.0,298.5 L1162.0,298.5 L1163.0,298.5 L1164.0,298.5 L1165.0,298.5 L1166.0,298.5 L1167.0,298.5 L1168.0,298.5 L1169.0,298.5 L1170.0,298.5 L1171.0,298.5 L1172.0,298.5 L1173.0,298.5 L1174.0,298.5 L1175.0,298.5 L1176.0,298.5 L1177.0,298.5 L1178.0,298.5 L1179.0,298.5 L1180.0,298.5 L1181.0,298.5 L1182.0,298.5 L1183.0,298.5 L1184.0,298.5 L1185.0,298.5 L1186.0,298.5 L1187.0,298.5 L1188.0,298.5 L1189.0,298.5 L1190.0,298.5 L1191.0,298.5 L1192.0,298.5 L1193.0,298.5 L1194.0,298.5 L1195.0,298.5 L1196.0,298.5 L1197.0,298.5 L1198.0,298.5 L1199.0,298.5 L1200.0,298.5 L1201.0,298.5 L1202.0,298.5 L1203.0,298.5 L1204.0,298.5 L1205.0,298.5 L1206.0,298.5 L1207.0,298.5 L1208.0,298.5 L1209.0,298.5 L1210.0,298.5 L1211.0,298.5 L1212.0,298.5 L1213.0,298.5 L1214.0,298.5 L1215.0,298.5 L1216.0,298.5 L1217.0,298.5 L1218.0,298.5 L1219.0,298.5 L1220.0,298.5 L1221.0,298.5 L1222.0,298.5 L1223.0,298.5 L1224.0,298.5 L1225.0,298.5 L1226.0,298.5 L1227.0,298.5 L1228.0,298.5 L1229.0,298.5 L1230.0,298.5 L1231.0,298.5 L1232.0,298.5 L1233.0,298.5 L1234.0,298.5 L1235.0,298.5 L1236.0,298.5 L1237.0,298.5 L1238.0,298.5 L1239.0,298.5 L1240.0,298.5 L1241.0,298.5 L1242.0,298.5 L1243.0,298.5 L1244.0,298.5 L1245.0,298.5 L1246.0,298.5 L1247.0,298.5 L1248.0,298.5 L1249.0,298.5 L1250.0,298.5 L1251.0,298.5 L1252.0,298.5 L1253.0,298.5 L1254.0,298.5 L1255.0,298.5 L1256.0,298.5 L1257.0,298.5 L1258.0,298.5 L1259.0,298.5 L1260.0,298.5 L1261.0,298.5 L1262.0,298.5 L1263.0,298.5 L1264.0,298.5 L1265.0,298.5 L1266.0,298.5 L1267.0,298.5 L1268.0,298.5 L1269.0,298.5 L1270.0,298.5 L1271.0,298.5 L1272.0,298.5 L1273.0,298.5 L1274.0,298.5 L1275.0,298.5 L1276.0,298.5 L1277.0,298.5 L1278.0,298.5 L1279.0,298.5 L1280.0,298.5 L1281.0,298.5 L1282.0,298.5 L1283.0,298.5 L1284.0,298.5 L1285.0,298.5 L1286.0,298.5 L1287.0,298.5 L1288.0,298.5 L1289.0,298.5 L1290.0,298.5 L1291.0,298.5 L1292.0,298.5 L1293.0,298.5 L1294.0,298.5 L1295.0,298.5 L1296.0,298.5 L1297.0,298.5 L1298.0,298.5 L1299.0,298.5 L1300.0,298.5 L1301.0,298.5 L1302.0,298.5 L1303.0,298.5 L1304.0,298.5 L1305.0,298.5 L1306.0,298.5 L1307.0,298.5 L1308.0,298.5 L1309.0,298.5 L1310.0,298.5 L1311.0,298.5 L1312.0,298.5 L1313.0,298.5 L1314.0,298.5 L1315.0,298.5 L1316.0,298.5 L1317.0,298.5 L1318.0,298.5 L1319.0,298.5 L1320.0,298.5 L1321.0,298.5 L1322.0,298.5 L1323.0,298.5 L1324.0,298.5 L1325.0,298.5 L1326.0,298.5 L1327.0,298.5 L1328.0,298.5 L1329.0,298.5 L1330.0,298.5 L1331.0,298.5 L1332.0,298.5 L1333.0,298.5 L1334.0,298.5 L1335.0,298.5 L1336.0,298.5 L1337.0,298.5 L1338.0,298.5 L1339.0,298.5 L1340.0,298.5 L1341.0,298.5 L1342.0,298.5 L1343.0,298.5 L1344.0,298.5 L1345.0,298.5 L1346.0,298.5 L1347.0,298.5 L1347.5,299.0 L1347.0,299.5 L1346.5,300.0 L1346.0,300.5 L1345.5,301.0 L1345.0,301.5 L1344.5,302.0 L1344.0,302.5 L1343.5,303.0 L1343.0,303.5 L1342.5,304.0 L1342.0,304.5 L1341.0,304.5 L1340.5,305.0 L1340.0,305.5 L1339.5,306.0 L1339.0,306.5 L1338.5,307.0 L1338.0,307.5 L1337.5,308.0 L1337.0,308.5 L1336.5,309.0 L1336.0,309.5 L1335.5,310.0 L1335.0,310.5 L1334.5,311.0 L1334.0,311.5 L1333.0,311.5 L1332.5,312.0 L1332.0,312.5 L1331.5,313.0 L1331.0,313.5 L1330.5,314.0 L1330.0,314.5 L1329.5,315.0 L1329.0,315.5 L1328.5,316.0 L1328.0,316.5 L1327.5,317.0 L1327.0,317.5 L1326.5,318.0 L1326.0,318.5 L1325.0,318.5 L1324.5,319.0 L1324.0,319.5 L1323.5,320.0 L1323.0,320.5 L1322.5,321.0 L1322.0,321.5 L1321.5,322.0 L1321.0,322.5 L1320.5,323.0 L1320.0,323.5 L1319.5,324.0 L1319.0,324.5 L1318.5,325.0 L1318.0,325.5 L1317.0,325.5 L1316.5,326.0 L1316.0,326.5 L1315.5,327.0 L1315.0,327.5 L1314.5,328.0 L1314.0,328.5 L1313.5,329.0 L1313.0,329.5 L1312.5,330.0 L1312.0,330.5 L1311.5,331.0 L1311.0,331.5 L1310.5,332.0 L1310.0,332.5 L1309.0,332.5 L1308.5,333.0 L1308.0,333.5 L1307.5,334.0 L1307.0,334.5 L1306.5,335.0 L1306.0,335.5 L1305.5,336.0 L1305.0,336.5 L1304.5,337.0 L1304.0,337.5 L1303.5,338.0 L1303.0,338.5 L1302.5,339.0 L1302.0,339.5 L1301.0,339.5 L1300.5,340.0 L1300.0,340.5 L1299.5,341.0 L1299.0,341.5 L1298.5,342.0 L1298.0,342.5 L1297.5,343.0 L1297.0,343.5 L1296.5,344.0 L1296.0,344.5 L1295.5,345.0 L1295.0,345.5 L1294.0,345.5 L1293.5,346.0 L1293.0,346.5 L1292.5,347.0 L1292.0,347.5 L1291.5,348.0 L1291.0,348.5 L1290.5,349.0 L1290.0,349.5 L1289.0,349.5 L1288.5,350.0 L1288.0,350.5 L1287.5,351.0 L1287.0,351.5 L1286.5,352.0 L1286.0,352.5 L1285.5,353.0 L1285.0,353.5 L1284.5,354.0 L1284.0,354.5 L1283.5,355.0 L1283.0,355.5 L1282.5,356.0 L1282.0,356.5 L1281.5,357.0 L1281.0,357.5 L1280.5,358.0 L1280.0,358.5 L1279.5,359.0 L1279.0,359.5 L1278.0,359.5 L1277.5,360.0 L1277.0,360.5 L1276.5,361.0 L1276.0,361.5 L1275.5,362.0 L1275.0,362.5 L1274.5,363.0 L1274.0,363.5 L1273.5,364.0 L1273.0,364.5 L1272.5,365.0 L1272.0,365.5 L1271.5,366.0 L1271.0,366.5 L1270.0,366.5 L1269.5,367.0 L1269.0,367.5 L1268.5,368.0 L1268.0,368.5 L1267.5,369.0 L1267.0,369.5 L1266.0,369.5 L1265.5,370.0 L1265.0,370.5 L1264.5,371.0 L1264.0,371.5 L1263.5,372.0 L1263.0,372.5 L1262.5,373.0 L1262.0,373.5 L1261.5,374.0 L1261.0,374.5 L1260.5,375.0 L1260.0,375.5 L1259.5,376.0 L1259.0,376.5 L1258.5,377.0 L1258.0,377.5 L1257.5,378.0 L1257.0,378.5 L1256.5,379.0 L1256.0,379.5 L1255.5,380.0 L1255.0,380.5 L1254.0,380.5 L1253.5,381.0 L1253.0,381.5 L1252.5,382.0 L1252.0,382.5 L1251.5,383.0 L1251.0,383.5 L1250.5,384.0 L1250.0,384.5 L1249.5,385.0 L1249.0,385.5 L1248.0,385.5 L1247.5,386.0 L1247.0,386.5 L1246.5,387.0 L1246.0,387.5 L1245.5,388.0 L1245.0,388.5 L1244.5,389.0 L1244.0,389.5 L1243.5,390.0 L1243.0,390.5 L1242.0,390.5 L1241.5,391.0 L1241.0,391.5 L1240.5,392.0 L1240.0,392.5 L1239.5,393.0 L1239.0,393.5 L1238.5,394.0 L1238.0,394.5 L1237.5,395.0 L1237.0,395.5 L1236.5,396.0 L1236.0,396.5 L1235.5,397.0 L1235.0,397.5 L1234.5,398.0 L1234.0,398.5 L1233.5,399.0 L1233.0,399.5 L1232.5,400.0 L1232.0,400.5 L1231.0,400.5 L1230.5,401.0 L1230.0,401.5 L1229.5,402.0 L1229.0,402.5 L1228.5,403.0 L1228.0,403.5 L1227.5,404.0 L1227.0,404.5 L1226.0,404.5 L1225.5,405.0 L1225.0,405.5 L1224.5,406.0 L1224.0,406.5 L1223.5,407.0 L1223.0,407.5 L1222.5,408.0 L1222.0,408.5 L1221.5,409.0 L1221.0,409.5 L1220.5,410.0 L1220.0,410.5 L1219.5,411.0 L1219.0,411.5 L1218.0,411.5 L1217.5,412.0 L1217.0,412.5 L1216.5,413.0 L1216.0,413.5 L1215.5,414.0 L1215.0,414.5 L1214.5,415.0 L1214.0,415.5 L1213.5,416.0 L1213.0,416.5 L1212.5,417.0 L1212.0,417.5 L1211.5,418.0 L1211.0,418.5 L1210.5,419.0 L1210.0,419.5 L1209.5,420.0 L1209.0,420.5 L1208.0,420.5 L1207.5,421.0 L1207.0,421.5 L1206.5,422.0 L1206.0,422.5 L1205.5,423.0 L1205.0,423.5 L1204.5,424.0 L1204.0,424.5 L1203.5,425.0 L1203.0,425.5 L1202.0,425.5 L1201.5,426.0 L1201.0,426.5 L1200.5,427.0 L1200.0,427.5 L1199.5,428.0 L1199.0,428.5 L1198.5,429.0 L1198.0,429.5 L1197.5,430.0 L1197.0,430.5 L1196.5,431.0 L1196.0,431.5 L1195.0,431.5 L1194.5,432.0 L1194.0,432.5 L1193.5,433.0 L1193.0,433.5 L1192.5,434.0 L1192.0,434.5 L1191.5,435.0 L1191.0,435.5 L1190.5,436.0 L1190.0,436.5 L1189.5,437.0 L1189.0,437.5 L1188.0,437.5 L1187.0,437.5 L1186.0,437.5 L1185.0,437.5 L1184.0,437.5 L1183.0,437.5 L1182.0,437.5 L1181.0,437.5 L1180.0,437.5 L1179.0,437.5 L1178.0,437.5 L1177.0,437.5 L1176.0,437.5 L1175.0,437.5 L1174.0,437.5 L1173.0,437.5 L1172.0,437.5 L1171.0,437.5 L1170.0,437.5 L1169.0,437.5 L1168.0,437.5 L1167.0,437.5 L1166.0,437.5 L1165.0,437.5 L1164.0,437.5 L1163.0,437.5 L1162.0,437.5 L1161.0,437.5 L1160.0,437.5 L1159.0,437.5 L1158.0,437.5 L1157.0,437.5 L1156.0,437.5 L1155.0,437.5 L1154.0,437.5 L1153.0,437.5 L1152.0,437.5 L1151.0,437.5 L1150.0,437.5 L1149.0,437.5 L1148.0,437.5 L1147.0,437.5 L1146.0,437.5 L1145.0,437.5 L1144.0,437.5 L1143.0,437.5 L1142.0,437.5 L1141.0,437.5 L1140.0,437.5 L1139.0,437.5 L1138.0,437.5 L1137.0,437.5 L1136.0,437.5 L1135.0,437.5 L1134.0,437.5 L1133.0,437.5 L1132.0,437.5 L1131.0,437.5 L1130.0,437.5 L1129.0,437.5 L1128.0,437.5 L1127.0,437.5 L1126.0,437.5 L1125.0,437.5 L1124.0,437.5 L1123.0,437.5 L1122.0,437.5 L1121.0,437.5 L1120.0,437.5 L1119.0,437.5 L1118.0,437.5 L1117.0,437.5 L1116.0,437.5 L1115.0,437.5 L1114.0,437.5 L1113.0,437.5 L1112.0,437.5 L1111.0,437.5 L1110.0,437.5 L1109.0,437.5 L1108.0,437.5 L1107.0,437.5 L1106.0,437.5 L1105.0,437.5 L1104.0,437.5 L1103.0,437.5 L1102.0,437.5 L1101.0,437.5 L1100.0,437.5 L1099.0,437.5 L1098.0,437.5 L1097.0,437.5 L1096.0,437.5 L1095.0,437.5 L1094.0,437.5 L1093.0,437.5 L1092.0,437.5 L1091.0,437.5 L1090.0,437.5 L1089.0,437.5 L1088.0,437.5 L1087.0,437.5 L1086.0,437.5 L1085.0,437.5 L1084.0,437.5 L1083.0,437.5 L1082.0,437.5 L1081.0,437.5 L1080.0,437.5 L1079.0,437.5 L1078.0,437.5 L1077.0,437.5 L1076.0,437.5 L1075.0,437.5 L1074.0,437.5 L1073.0,437.5 L1072.0,437.5 L1071.0,437.5 L1070.0,437.5 L1069.0,437.5 L1068.0,437.5 L1067.0,437.5 L1066.0,437.5 L1065.0,437.5 L1064.0,437.5 L1063.0,437.5 L1062.0,437.5 L1061.0,437.5 L1060.0,437.5 L1059.0,437.5 L1058.0,437.5 L1057.0,437.5 L1056.0,437.5 L1055.0,437.5 L1054.0,437.5 L1053.0,437.5 L1052.0,437.5 L1051.0,437.5 L1050.0,437.5 L1049.0,437.5 L1048.0,437.5 L1047.0,437.5 L1046.0,437.5 L1045.0,437.5 L1044.0,437.5 L1043.0,437.5 L1042.0,437.5 L1041.0,437.5 L1040.0,437.5 L1039.0,437.5 L1038.0,437.5 L1037.0,437.5 L1036.0,437.5 L1035.0,437.5 L1034.0,437.5 L1033.0,437.5 L1032.0,437.5 L1031.0,437.5 L1030.0,437.5 L1029.0,437.5 L1028.0,437.5 L1027.0,437.5 L1026.0,437.5 L1025.0,437.5 L1024.0,437.5 L1023.0,437.5 L1022.0,437.5 L1021.0,437.5 L1020.0,437.5 L1019.0,437.5 L1018.0,437.5 L1017.0,437.5 L1016.0,437.5 L1015.0,437.5 L1014.0,437.5 L1013.0,437.5 L1012.0,437.5 L1011.0,437.5 L1010.0,437.5 L1009.0,437.5 L1008.0,437.5 L1007.0,437.5 L1006.0,437.5 L1005.0,437.5 L1004.0,437.5 L1003.0,437.5 L1002.0,437.5 L1001.0,437.5 L1000.0,437.5 L999.0,437.5 L998.0,437.5 L997.0,437.5 L996.0,437.5 L995.0,437.5 L994.0,437.5 L993.5,438.0 L993.0,438.5 L992.5,439.0 L992.0,439.5 L991.5,440.0 L991.0,440.5 L990.5,441.0 L990.0,441.5 L989.5,442.0 L989.5,443.0 L989.0,443.5 L988.5,444.0 L988.0,444.5 L987.5,445.0 L987.0,445.5 L986.5,446.0 L986.0,446.5 L985.5,447.0 L985.0,447.5 L984.5,448.0 L984.0,448.5 L983.5,449.0 L983.0,449.5 L982.5,450.0 L982.5,451.0 L982.0,451.5 L981.5,452.0 L981.0,452.5 L980.5,453.0 L980.0,453.5 L979.5,454.0 L979.0,454.5 L978.5,455.0 L978.0,455.5 L977.5,456.0 L977.0,456.5 L976.5,457.0 L976.5,458.0 L976.0,458.5 L975.5,459.0 L975.0,459.5 L974.5,460.0 L974.0,460.5 L973.5,461.0 L973.0,461.5 L972.5,462.0 L972.0,462.5 L971.5,463.0 L971.5,464.0 L971.0,464.5 L970.0,464.5 L969.5,465.0 L969.5,466.0 L969.0,466.5 L968.5,467.0 L968.0,467.5 L967.5,468.0 L967.0,468.5 L966.5,469.0 L966.0,469.5 L965.5,470.0 L965.0,470.5 L964.5,471.0 L964.0,471.5 L963.5,472.0 L963.0,472.5 L962.5,473.0 L962.5,474.0 L962.0,474.5 L961.5,475.0 L961.0,475.5 L960.5,476.0 L960.0,476.5 L959.5,477.0 L959.0,477.5 L958.5,478.0 L958.0,478.5 L957.5,479.0 L957.5,480.0 L957.0,480.5 L956.5,481.0 L956.0,481.5 L955.5,482.0 L955.0,482.5 L954.5,483.0 L954.0,483.5 L953.5,484.0 L953.0,484.5 L952.5,485.0 L952.5,486.0 L952.0,486.5 L951.5,487.0 L951.0,487.5 L950.5,488.0 L950.0,488.5 L949.5,489.0 L949.0,489.5 L948.5,490.0 L948.0,490.5 L947.5,491.0 L947.0,491.5 L946.5,492.0 L946.0,492.5 L945.5,493.0 L945.0,493.5 L944.5,494.0 L944.0,494.5 L943.5,495.0 L943.0,495.5 L942.5,496.0 L942.5,497.0 L942.0,497.5 L941.5,498.0 L941.0,498.5 L940.5,499.0 L940.0,499.5 L939.5,500.0 L939.0,500.5 L938.5,501.0 L938.5,502.0 L938.0,502.5 L937.5,503.0 L937.0,503.5 L936.5,504.0 L936.0,504.5 L935.5,505.0 L935.0,505.5 L934.5,506.0 L934.0,506.5 L933.5,507.0 L933.5,508.0 L934.0,508.5 L935.0,508.5 L935.5,509.0 L936.0,509.5 L936.5,510.0 L937.0,510.5 L937.5,511.0 L938.0,511.5 L939.0,511.5 L939.5,512.0 L940.0,512.5 L940.5,513.0 L941.0,513.5 L941.5,514.0 L942.0,514.5 L943.0,514.5 L943.5,515.0 L944.0,515.5 L944.5,516.0 L945.0,516.5 L945.5,517.0 L946.0,517.5 L947.0,517.5 L947.5,518.0 L948.0,518.5 L948.5,519.0 L949.0,519.5 L949.5,520.0 L950.0,520.5 L951.0,520.5 L951.5,521.0 L952.0,521.5 L952.5,522.0 L953.0,522.5 L953.5,523.0 L954.0,523.5 L954.5,524.0 L955.0,524.5 L956.0,524.5 L956.5,525.0 L957.0,525.5 L957.5,526.0 L958.0,526.5 L958.5,527.0 L959.0,527.5 L960.0,527.5 L960.5,528.0 L961.0,528.5 L961.5,529.0 L962.0,529.5 L962.5,530.0 L963.0,530.5 L964.0,530.5 L964.5,531.0 L965.0,531.5 L965.5,532.0 L966.0,532.5 L966.5,533.0 L967.0,533.5 L968.0,533.5 L968.5,534.0 L969.0,534.5 L969.5,535.0 L970.0,535.5 L971.0,535.5 L971.5,536.0 L972.0,536.5 L972.5,537.0 L973.0,537.5 L974.0,537.5 L974.5,538.0 L975.0,538.5 L975.5,539.0 L976.0,539.5 L976.5,540.0 L977.0,540.5 L978.0,540.5 L978.5,541.0 L979.0,541.5 L979.5,542.0 L980.0,542.5 L980.5,543.0 L981.0,543.5 L981.5,544.0 L982.0,544.5 L982.5,545.0 L983.0,545.5 L984.0,545.5 L984.5,546.0 L985.0,546.5 L985.5,547.0 L986.0,547.5 L986.5,548.0 L987.0,548.5 L988.0,548.5 L988.5,549.0 L989.0,549.5 L989.5,550.0 L990.0,550.5 L990.5,551.0 L991.0,551.5 L992.0,551.5 L992.5,552.0 L993.0,552.5 L993.5,553.0 L994.0,553.5 L995.0,553.5 L995.5,554.0 L996.0,554.5 L996.5,555.0 L997.0,555.5 L998.0,555.5 L998.5,556.0 L999.0,556.5 L999.5,557.0 L1000.0,557.5 L1000.5,558.0 L1001.0,558.5 L1002.0,558.5 L1002.5,559.0 L1003.0,559.5 L1003.5,560.0 L1004.0,560.5 L1004.5,561.0 L1005.0,561.5 L1005.5,562.0 L1006.0,562.5 L1007.0,562.5 L1007.5,563.0 L1008.0,563.5 L1008.5,564.0 L1009.0,564.5 L1009.5,565.0 L1010.0,565.5 L1010.5,566.0 L1011.0,566.5 L1012.0,566.5 L1012.5,567.0 L1013.0,567.5 L1013.5,568.0 L1014.0,568.5 L1015.0,568.5 L1015.5,569.0 L1016.0,569.5 L1016.5,570.0 L1017.0,570.5 L1017.5,571.0 L1018.0,571.5 L1019.0,571.5 L1019.5,572.0 L1020.0,572.5 L1020.5,573.0 L1021.0,573.5 L1021.5,574.0 L1022.0,574.5 L1023.0,574.5 L1023.5,575.0 L1024.0,575.5 L1024.5,576.0 L1025.0,576.5 L1025.5,577.0 L1026.0,577.5 L1026.5,578.0 L1026.0,578.5 Z" fill="black"/><path d="M1025.0,747.5 L1024.0,747.5 L1023.0,747.5 L1022.0,747.5 L1021.0,747.5 L1020.0,747.5 L1019.0,747.5 L1018.0,747.5 L1017.0,747.5 L1016.0,747.5 L1015.0,747.5 L1014.0,747.5 L1013.0,747.5 L1012.0,747.5 L1011.0,747.5 L1010.0,747.5 L1009.0,747.5 L1008.0,747.5 L1007.0,747.5 L1006.0,747.5 L1005.0,747.5 L1004.0,747.5 L1003.0,747.5 L1002.0,747.5 L1001.0,747.5 L1000.0,747.5 L999.0,747.5 L998.0,747.5 L997.0,747.5 L996.0,747.5 L995.0,747.5 L994.0,747.5 L993.0,747.5 L992.0,747.5 L991.0,747.5 L990.0,747.5 L989.0,747.5 L988.0,747.5 L987.0,747.5 L986.0,747.5 L985.0,747.5 L984.0,747.5 L983.0,747.5 L982.0,747.5 L981.0,747.5 L980.0,747.5 L979.0,747.5 L978.0,747.5 L977.0,747.5 L976.0,747.5 L975.0,747.5 L974.0,747.5 L973.0,747.5 L972.0,747.5 L971.0,747.5 L970.0,747.5 L969.0,747.5 L968.0,747.5 L967.0,747.5 L966.0,747.5 L965.0,747.5 L964.0,747.5 L963.0,747.5 L962.0,747.5 L961.0,747.5 L960.0,747.5 L959.0,747.5 L958.0,747.5 L957.0,747.5 L956.0,747.5 L955.0,747.5 L954.0,747.5 L953.0,747.5 L952.0,747.5 L951.0,747.5 L950.0,747.5 L949.0,747.5 L948.0,747.5 L947.0,747.5 L946.0,747.5 L945.0,747.5 L944.0,747.5 L943.0,747.5 L942.0,747.5 L941.0,747.5 L940.0,747.5 L939.0,747.5 L938.0,747.5 L937.0,747.5 L936.0,747.5 L935.0,747.5 L934.0,747.5 L933.0,747.5 L932.0,747.5 L931.0,747.5 L930.0,747.5 L929.0,747.5 L928.0,747.5 L927.0,747.5 L926.0,747.5 L925.0,747.5 L924.0,747.5 L923.0,747.5 L922.0,747.5 L921.0,747.5 L920.0,747.5 L919.0,747.5 L918.0,747.5 L917.0,747.5 L916.0,747.5 L915.0,747.5 L914.0,747.5 L913.0,747.5 L912.0,747.5 L911.0,747.5 L910.0,747.5 L909.0,747.5 L908.0,747.5 L907.0,747.5 L906.0,747.5 L905.0,747.5 L904.0,747.5 L903.0,747.5 L902.0,747.5 L901.0,747.5 L900.0,747.5 L899.0,747.5 L898.0,747.5 L897.0,747.5 L896.0,747.5 L895.0,747.5 L894.0,747.5 L893.0,747.5 L892.0,747.5 L891.0,747.5 L890.0,747.5 L889.0,747.5 L888.0,747.5 L887.0,747.5 L886.0,747.5 L885.0,747.5 L884.0,747.5 L883.0,747.5 L882.0,747.5 L881.0,747.5 L880.0,747.5 L879.0,747.5 L878.0,747.5 L877.0,747.5 L876.0,747.5 L875.0,747.5 L874.0,747.5 L873.0,747.5 L872.0,747.5 L871.0,747.5 L870.0,747.5 L869.0,747.5 L868.0,747.5 L867.0,747.5 L866.0,747.5 L865.0,747.5 L864.0,747.5 L863.0,747.5 L862.0,747.5 L861.0,747.5 L860.0,747.5 L859.0,747.5 L858.0,747.5 L857.0,747.5 L856.0,747.5 L855.0,747.5 L854.0,747.5 L853.0,747.5 L852.0,747.5 L851.0,747.5 L850.0,747.5 L849.0,747.5 L848.0,747.5 L847.0,747.5 L846.0,747.5 L845.0,747.5 L844.0,747.5 L843.0,747.5 L842.0,747.5 L841.0,747.5 L840.0,747.5 L839.0,747.5 L838.0,747.5 L837.0,747.5 L836.0,747.5 L835.0,747.5 L834.0,747.5 L833.0,747.5 L832.0,747.5 L831.0,747.5 L830.0,747.5 L829.0,747.5 L828.0,747.5 L827.0,747.5 L826.0,747.5 L825.0,747.5 L824.0,747.5 L823.0,747.5 L822.0,747.5 L821.0,747.5 L820.0,747.5 L819.0,747.5 L818.0,747.5 L817.0,747.5 L816.0,747.5 L815.0,747.5 L814.0,747.5 L813.0,747.5 L812.0,747.5 L811.0,747.5 L810.0,747.5 L809.0,747.5 L808.0,747.5 L807.0,747.5 L806.0,747.5 L805.0,747.5 L804.0,747.5 L803.0,747.5 L802.0,747.5 L801.0,747.5 L800.0,747.5 L799.0,747.5 L798.0,747.5 L797.0,747.5 L796.0,747.5 L795.0,747.5 L794.0,747.5 L793.0,747.5 L792.0,747.5 L791.0,747.5 L790.0,747.5 L789.0,747.5 L788.0,747.5 L787.0,747.5 L786.0,747.5 L785.5,747.0 L785.5,746.0 L785.5,745.0 L785.5,744.0 L785.5,743.0 L785.5,742.0 L785.5,741.0 L785.5,740.0 L785.5,739.0 L785.5,738.0 L785.5,737.0 L785.5,736.0 L785.5,735.0 L785.5,734.0 L785.5,733.0 L785.5,732.0 L785.5,731.0 L785.5,730.0 L785.5,729.0 L785.5,728.0 L785.5,727.0 L785.5,726.0 L785.5,725.0 L785.5,724.0 L785.5,723.0 L785.5,722.0 L785.5,721.0 L785.5,720.0 L785.5,719.0 L785.5,718.0 L785.5,717.0 L785.5,716.0 L785.5,715.0 L785.5,714.0 L785.5,713.0 L785.5,712.0 L785.5,711.0 L785.5,710.0 L785.5,709.0 L785.5,708.0 L785.5,707.0 L785.5,706.0 L785.5,705.0 L785.5,704.0 L785.5,703.0 L785.5,702.0 L785.5,701.0 L785.5,700.0 L785.5,699.0 L785.5,698.0 L785.5,697.0 L785.5,696.0 L785.5,695.0 L785.5,694.0 L785.5,693.0 L785.5,692.0 L785.5,691.0 L785.5,690.0 L785.5,689.0 L785.5,688.0 L785.5,687.0 L785.5,686.0 L785.5,685.0 L785.5,684.0 L785.5,683.0 L785.5,682.0 L785.5,681.0 L785.5,680.0 L785.5,679.0 L785.5,678.0 L785.5,677.0 L785.5,676.0 L785.5,675.0 L785.5,674.0 L785.5,673.0 L785.5,672.0 L785.5,671.0 L785.5,670.0 L785.5,669.0 L785.5,668.0 L785.5,667.0 L785.5,666.0 L785.5,665.0 L785.5,664.0 L785.5,663.0 L785.5,662.0 L785.5,661.0 L785.5,660.0 L785.5,659.0 L785.5,658.0 L785.5,657.0 L785.5,656.0 L785.5,655.0 L785.5,654.0 L785.5,653.0 L785.5,652.0 L785.5,651.0 L785.5,650.0 L785.5,649.0 L785.5,648.0 L785.5,647.0 L785.5,646.0 L785.5,645.0 L785.5,644.0 L785.5,643.0 L785.5,642.0 L785.5,641.0 L785.5,640.0 L785.5,639.0 L785.5,638.0 L785.5,637.0 L785.5,636.0 L785.5,635.0 L785.5,634.0 L785.5,633.0 L785.5,632.0 L785.5,631.0 L785.5,630.0 L785.5,629.0 L785.5,628.0 L785.5,627.0 L785.5,626.0 L785.5,625.0 L785.5,624.0 L785.5,623.0 L785.5,622.0 L785.5,621.0 L785.5,620.0 L785.5,619.0 L785.5,618.0 L786.0,617.5 L786.5,617.0 L787.0,616.5 L787.5,616.0 L788.0,615.5 L789.0,615.5 L789.5,615.0 L790.0,614.5 L791.0,614.5 L791.5,614.0 L792.0,613.5 L793.0,613.5 L793.5,613.0 L794.0,612.5 L795.0,612.5 L795.5,612.0 L796.0,611.5 L797.0,611.5 L797.5,611.0 L798.0,610.5 L799.0,610.5 L799.5,610.0 L800.0,609.5 L801.0,609.5 L801.5,609.0 L802.0,608.5 L803.0,608.5 L803.5,608.0 L804.0,607.5 L804.5,607.0 L805.0,606.5 L806.0,606.5 L806.5,606.0 L807.0,605.5 L807.5,605.0 L808.0,604.5 L809.0,604.5 L810.0,604.5 L811.0,604.5 L812.0,604.5 L813.0,604.5 L814.0,604.5 L815.0,604.5 L816.0,604.5 L817.0,604.5 L818.0,604.5 L819.0,604.5 L820.0,604.5 L821.0,604.5 L822.0,604.5 L823.0,604.5 L824.0,604.5 L825.0,604.5 L826.0,604.5 L827.0,604.5 L828.0,604.5 L829.0,604.5 L830.0,604.5 L831.0,604.5 L832.0,604.5 L833.0,604.5 L834.0,604.5 L835.0,604.5 L836.0,604.5 L837.0,604.5 L838.0,604.5 L839.0,604.5 L840.0,604.5 L841.0,604.5 L842.0,604.5 L843.0,604.5 L844.0,604.5 L845.0,604.5 L846.0,604.5 L847.0,604.5 L848.0,604.5 L849.0,604.5 L850.0,604.5 L851.0,604.5 L852.0,604.5 L853.0,604.5 L854.0,604.5 L855.0,604.5 L856.0,604.5 L857.0,604.5 L858.0,604.5 L859.0,604.5 L860.0,604.5 L861.0,604.5 L862.0,604.5 L863.0,604.5 L864.0,604.5 L865.0,604.5 L866.0,604.5 L867.0,604.5 L868.0,604.5 L869.0,604.5 L870.0,604.5 L871.0,604.5 L872.0,604.5 L873.0,604.5 L874.0,604.5 L875.0,604.5 L876.0,604.5 L877.0,604.5 L878.0,604.5 L879.0,604.5 L880.0,604.5 L881.0,604.5 L882.0,604.5 L883.0,604.5 L884.0,604.5 L885.0,604.5 L886.0,604.5 L887.0,604.5 L888.0,604.5 L889.0,604.5 L890.0,604.5 L891.0,604.5 L892.0,604.5 L893.0,604.5 L894.0,604.5 L895.0,604.5 L896.0,604.5 L897.0,604.5 L898.0,604.5 L899.0,604.5 L900.0,604.5 L901.0,604.5 L902.0,604.5 L903.0,604.5 L904.0,604.5 L905.0,604.5 L906.0,604.5 L906.5,605.0 L906.5,606.0 L906.5,607.0 L906.5,608.0 L906.5,609.0 L906.5,610.0 L906.5,611.0 L906.5,612.0 L906.5,613.0 L906.5,614.0 L906.5,615.0 L906.5,616.0 L906.5,617.0 L906.5,618.0 L906.5,619.0 L906.5,620.0 L906.5,621.0 L906.5,622.0 L906.5,623.0 L906.5,624.0 L906.5,625.0 L906.5,626.0 L906.5,627.0 L907.0,627.5 L908.0,627.5 L909.0,627.5 L910.0,627.5 L911.0,627.5 L912.0,627.5 L913.0,627.5 L914.0,627.5 L915.0,627.5 L916.0,627.5 L917.0,627.5 L918.0,627.5 L919.0,627.5 L920.0,627.5 L921.0,627.5 L922.0,627.5 L923.0,627.5 L924.0,627.5 L925.0,627.5 L926.0,627.5 L927.0,627.5 L928.0,627.5 L929.0,627.5 L930.0,627.5 L931.0,627.5 L932.0,627.5 L933.0,627.5 L934.0,627.5 L935.0,627.5 L936.0,627.5 L937.0,627.5 L938.0,627.5 L939.0,627.5 L940.0,627.5 L941.0,627.5 L942.0,627.5 L943.0,627.5 L944.0,627.5 L945.0,627.5 L946.0,627.5 L947.0,627.5 L948.0,627.5 L949.0,627.5 L950.0,627.5 L951.0,627.5 L952.0,627.5 L953.0,627.5 L954.0,627.5 L955.0,627.5 L956.0,627.5 L957.0,627.5 L958.0,627.5 L959.0,627.5 L960.0,627.5 L961.0,627.5 L962.0,627.5 L963.0,627.5 L964.0,627.5 L965.0,627.5 L966.0,627.5 L967.0,627.5 L968.0,627.5 L969.0,627.5 L970.0,627.5 L971.0,627.5 L972.0,627.5 L973.0,627.5 L974.0,627.5 L975.0,627.5 L976.0,627.5 L977.0,627.5 L978.0,627.5 L978.5,627.0 L979.0,626.5 L979.5,626.0 L980.0,625.5 L980.5,625.0 L981.0,624.5 L982.0,624.5 L982.5,624.0 L983.0,623.5 L983.5,623.0 L984.0,622.5 L984.5,622.0 L985.0,621.5 L986.0,621.5 L986.5,621.0 L987.0,620.5 L987.5,620.0 L988.0,619.5 L988.5,619.0 L989.0,618.5 L990.0,618.5 L990.5,618.0 L991.0,617.5 L991.5,617.0 L992.0,616.5 L993.0,616.5 L993.5,616.0 L994.0,615.5 L994.5,615.0 L995.0,614.5 L995.5,614.0 L996.0,613.5 L997.0,613.5 L997.5,613.0 L998.0,612.5 L998.5,612.0 L999.0,611.5 L999.5,611.0 L1000.0,610.5 L1001.0,610.5 L1001.5,610.0 L1002.0,609.5 L1002.5,609.0 L1003.0,608.5 L1003.5,608.0 L1004.0,607.5 L1004.5,607.0 L1005.0,606.5 L1006.0,606.5 L1006.5,606.0 L1007.0,605.5 L1007.5,605.0 L1008.0,604.5 L1008.5,604.0 L1009.0,603.5 L1009.5,603.0 L1010.0,602.5 L1011.0,602.5 L1011.5,602.0 L1012.0,601.5 L1013.0,601.5 L1013.5,601.0 L1014.0,600.5 L1014.5,600.0 L1015.0,599.5 L1015.5,599.0 L1016.0,598.5 L1017.0,598.5 L1017.5,598.0 L1018.0,597.5 L1018.5,597.0 L1019.0,596.5 L1019.5,596.0 L1020.0,595.5 L1021.0,595.5 L1021.5,595.0 L1022.0,594.5 L1022.5,594.0 L1023.0,593.5 L1023.5,593.0 L1024.0,592.5 L1025.0,592.5 L1025.5,592.0 L1026.0,591.5 L1026.5,591.0 L1027.0,590.5 L1027.5,590.0 L1028.0,589.5 L1029.0,589.5 L1029.5,589.0 L1030.0,588.5 L1030.5,588.0 L1031.0,587.5 L1031.5,587.0 L1032.0,586.5 L1033.0,586.5 L1033.5,586.0 L1034.0,585.5 L1034.5,585.0 L1035.0,584.5 L1035.5,584.0 L1036.0,583.5 L1036.5,583.0 L1037.0,582.5 L1038.0,582.5 L1038.5,582.0 L1039.0,581.5 L1039.5,581.0 L1040.0,580.5 L1040.5,580.0 L1041.0,579.5 L1042.0,579.5 L1042.5,579.0 L1043.0,578.5 L1043.5,578.0 L1044.0,577.5 L1044.5,577.0 L1045.0,576.5 L1046.0,576.5 L1046.5,576.0 L1047.0,575.5 L1047.5,575.0 L1048.0,574.5 L1048.5,574.0 L1049.0,573.5 L1050.0,573.5 L1050.5,573.0 L1051.0,572.5 L1051.5,572.0 L1052.0,571.5 L1052.5,571.0 L1053.0,570.5 L1054.0,570.5 L1054.5,570.0 L1055.0,569.5 L1056.0,569.5 L1056.5,569.0 L1057.0,568.5 L1057.5,568.0 L1058.0,567.5 L1058.5,567.0 L1059.0,566.5 L1060.0,566.5 L1060.5,566.0 L1061.0,565.5 L1061.5,565.0 L1062.0,564.5 L1062.5,564.0 L1063.0,563.5 L1063.5,563.0 L1064.0,562.5 L1064.5,562.0 L1065.0,561.5 L1066.0,561.5 L1066.5,561.0 L1067.0,560.5 L1067.5,560.0 L1068.0,559.5 L1068.5,559.0 L1069.0,558.5 L1070.0,558.5 L1070.5,558.0 L1070.0,557.5 L1069.5,557.0 L1069.0,556.5 L1068.0,556.5 L1067.5,556.0 L1067.0,555.5 L1066.5,555.0 L1066.0,554.5 L1065.0,554.5 L1064.5,554.0 L1064.0,553.5 L1063.5,553.0 L1063.0,552.5 L1062.0,552.5 L1061.5,552.0 L1061.0,551.5 L1060.5,551.0 L1060.0,550.5 L1059.0,550.5 L1058.5,550.0 L1058.0,549.5 L1057.5,549.0 L1057.0,548.5 L1056.0,548.5 L1055.5,548.0 L1055.0,547.5 L1054.0,547.5 L1053.5,547.0 L1053.0,546.5 L1052.5,546.0 L1052.0,545.5 L1051.0,545.5 L1050.5,545.0 L1050.0,544.5 L1049.5,544.0 L1049.0,543.5 L1048.5,543.0 L1048.0,542.5 L1047.0,542.5 L1046.5,542.0 L1046.0,541.5 L1045.5,541.0 L1045.0,540.5 L1044.0,540.5 L1043.5,540.0 L1043.0,539.5 L1042.5,539.0 L1042.0,538.5 L1041.0,538.5 L1040.5,538.0 L1040.0,537.5 L1039.5,537.0 L1039.0,536.5 L1038.0,536.5 L1037.5,536.0 L1037.0,535.5 L1036.0,535.5 L1035.5,535.0 L1035.0,534.5 L1034.5,534.0 L1034.0,533.5 L1033.0,533.5 L1032.5,533.0 L1032.0,532.5 L1031.0,532.5 L1030.5,532.0 L1030.0,531.5 L1029.5,531.0 L1029.0,530.5 L1028.0,530.5 L1027.5,530.0 L1027.0,529.5 L1026.5,529.0 L1026.0,528.5 L1025.0,528.5 L1024.5,528.0 L1024.0,527.5 L1023.5,527.0 L1023.0,526.5 L1022.0,526.5 L1021.5,526.0 L1021.0,525.5 L1020.5,525.0 L1020.0,524.5 L1019.0,524.5 L1018.5,524.0 L1018.0,523.5 L1017.5,523.0 L1017.0,522.5 L1016.5,522.0 L1016.0,521.5 L1015.0,521.5 L1014.5,521.0 L1014.0,520.5 L1013.5,520.0 L1013.0,519.5 L1012.0,519.5 L1011.5,519.0 L1011.0,518.5 L1010.0,518.5 L1009.5,518.0 L1009.0,517.5 L1008.5,517.0 L1008.0,516.5 L1007.0,516.5 L1006.5,516.0 L1006.0,515.5 L1005.5,515.0 L1005.0,514.5 L1004.0,514.5 L1003.5,514.0 L1003.0,513.5 L1002.5,513.0 L1002.0,512.5 L1001.0,512.5 L1000.5,512.0 L1000.0,511.5 L999.5,511.0 L1000.0,510.5 L1000.5,510.0 L1001.0,509.5 L1001.5,509.0 L1002.0,508.5 L1002.5,508.0 L1003.0,507.5 L1003.5,507.0 L1004.0,506.5 L1004.5,506.0 L1005.0,505.5 L1005.5,505.0 L1006.0,504.5 L1006.5,504.0 L1006.5,503.0 L1007.0,502.5 L1007.5,502.0 L1008.0,501.5 L1008.5,501.0 L1009.0,500.5 L1009.5,500.0 L1010.0,499.5 L1010.5,499.0 L1011.0,498.5 L1011.5,498.0 L1012.0,497.5 L1012.5,497.0 L1013.0,496.5 L1013.5,496.0 L1014.0,495.5 L1014.5,495.0 L1015.0,494.5 L1015.5,494.0 L1016.0,493.5 L1016.5,493.0 L1017.0,492.5 L1017.5,492.0 L1018.0,491.5 L1018.5,491.0 L1019.0,490.5 L1019.5,490.0 L1020.0,489.5 L1020.5,489.0 L1021.0,488.5 L1021.5,488.0 L1022.0,487.5 L1022.5,487.0 L1023.0,486.5 L1023.5,486.0 L1024.0,485.5 L1024.5,485.0 L1025.0,484.5 L1025.5,484.0 L1026.0,483.5 L1026.5,483.0 L1027.0,482.5 L1027.5,482.0 L1028.0,481.5 L1028.5,481.0 L1029.0,480.5 L1029.5,480.0 L1030.0,479.5 L1030.5,479.0 L1031.0,478.5 L1031.5,478.0 L1032.0,477.5 L1032.5,477.0 L1033.0,476.5 L1033.5,476.0 L1034.0,475.5 L1034.5,475.0 L1035.0,474.5 L1035.5,474.0 L1036.0,473.5 L1036.5,473.0 L1037.0,472.5 L1037.5,472.0 L1038.0,471.5 L1038.5,471.0 L1039.0,470.5 L1039.5,470.0 L1040.0,469.5 L1040.5,469.0 L1041.0,468.5 L1041.5,468.0 L1042.0,467.5 L1042.5,467.0 L1043.0,466.5 L1043.5,466.0 L1044.0,465.5 L1044.5,465.0 L1045.0,464.5 L1045.5,464.0 L1046.0,463.5 L1046.5,463.0 L1047.0,462.5 L1048.0,462.5 L1049.0,462.5 L1050.0,462.5 L1051.0,462.5 L1052.0,462.5 L1053.0,462.5 L1054.0,462.5 L1055.0,462.5 L1056.0,462.5 L1057.0,462.5 L1058.0,462.5 L1059.0,462.5 L1060.0,462.5 L1061.0,462.5 L1062.0,462.5 L1063.0,462.5 L1064.0,462.5 L1065.0,462.5 L1066.0,462.5 L1067.0,462.5 L1068.0,462.5 L1069.0,462.5 L1070.0,462.5 L1071.0,462.5 L1072.0,462.5 L1073.0,462.5 L1074.0,462.5 L1075.0,462.5 L1076.0,462.5 L1077.0,462.5 L1078.0,462.5 L1079.0,462.5 L1080.0,462.5 L1081.0,462.5 L1082.0,462.5 L1083.0,462.5 L1084.0,462.5 L1085.0,462.5 L1086.0,462.5 L1087.0,462.5 L1088.0,462.5 L1089.0,462.5 L1090.0,462.5 L1091.0,462.5 L1092.0,462.5 L1093.0,462.5 L1094.0,462.5 L1095.0,462.5 L1096.0,462.5 L1097.0,462.5 L1098.0,462.5 L1099.0,462.5 L1100.0,462.5 L1101.0,462.5 L1102.0,462.5 L1103.0,462.5 L1104.0,462.5 L1105.0,462.5 L1106.0,462.5 L1107.0,462.5 L1108.0,462.5 L1109.0,462.5 L1110.0,462.5 L1111.0,462.5 L1112.0,462.5 L1113.0,462.5 L1114.0,462.5 L1115.0,462.5 L1116.0,462.5 L1117.0,462.5 L1118.0,462.5 L1119.0,462.5 L1120.0,462.5 L1121.0,462.5 L1122.0,462.5 L1123.0,462.5 L1124.0,462.5 L1125.0,462.5 L1126.0,462.5 L1127.0,462.5 L1128.0,462.5 L1129.0,462.5 L1130.0,462.5 L1131.0,462.5 L1132.0,462.5 L1133.0,462.5 L1134.0,462.5 L1135.0,462.5 L1136.0,462.5 L1137.0,462.5 L1138.0,462.5 L1139.0,462.5 L1140.0,462.5 L1141.0,462.5 L1142.0,462.5 L1143.0,462.5 L1144.0,462.5 L1145.0,462.5 L1146.0,462.5 L1147.0,462.5 L1148.0,462.5 L1149.0,462.5 L1150.0,462.5 L1151.0,462.5 L1152.0,462.5 L1153.0,462.5 L1154.0,462.5 L1155.0,462.5 L1156.0,462.5 L1157.0,462.5 L1158.0,462.5 L1159.0,462.5 L1160.0,462.5 L1161.0,462.5 L1162.0,462.5 L1163.0,462.5 L1164.0,462.5 L1165.0,462.5 L1166.0,462.5 L1166.5,463.0 L1167.0,463.5 L1167.5,464.0 L1168.0,464.5 L1168.5,465.0 L1169.0,465.5 L1169.5,466.0 L1170.0,466.5 L1170.5,467.0 L1171.0,467.5 L1171.5,468.0 L1172.0,468.5 L1172.5,469.0 L1173.0,469.5 L1173.5,470.0 L1174.0,470.5 L1174.5,471.0 L1175.0,471.5 L1175.5,472.0 L1176.0,472.5 L1176.5,473.0 L1177.0,473.5 L1177.5,474.0 L1178.0,474.5 L1178.5,475.0 L1179.0,475.5 L1179.5,476.0 L1180.0,476.5 L1180.5,477.0 L1181.0,477.5 L1181.5,478.0 L1182.0,478.5 L1182.5,479.0 L1183.0,479.5 L1183.5,480.0 L1184.0,480.5 L1184.5,481.0 L1185.0,481.5 L1185.5,482.0 L1186.0,482.5 L1186.5,483.0 L1187.0,483.5 L1187.5,484.0 L1188.0,484.5 L1188.5,485.0 L1189.0,485.5 L1189.5,486.0 L1190.0,486.5 L1190.5,487.0 L1191.0,487.5 L1191.5,488.0 L1192.0,488.5 L1192.5,489.0 L1193.0,489.5 L1193.5,490.0 L1194.0,490.5 L1194.5,491.0 L1195.0,491.5 L1195.5,492.0 L1196.0,492.5 L1197.0,492.5 L1197.5,493.0 L1198.0,493.5 L1198.5,494.0 L1199.0,494.5 L1199.5,495.0 L1200.0,495.5 L1200.5,496.0 L1201.0,496.5 L1201.5,497.0 L1201.5,498.0 L1202.0,498.5 L1203.0,498.5 L1203.5,499.0 L1203.5,500.0 L1204.0,500.5 L1204.5,501.0 L1205.0,501.5 L1206.0,501.5 L1206.5,502.0 L1207.0,502.5 L1207.5,503.0 L1208.0,503.5 L1208.5,504.0 L1209.0,504.5 L1209.5,505.0 L1210.0,505.5 L1210.5,506.0 L1211.0,506.5 L1211.5,507.0 L1212.0,507.5 L1212.5,508.0 L1213.0,508.5 L1213.5,509.0 L1214.0,509.5 L1214.5,510.0 L1215.0,510.5 L1215.5,511.0 L1216.0,511.5 L1216.5,512.0 L1217.0,512.5 L1217.5,513.0 L1218.0,513.5 L1218.5,514.0 L1219.0,514.5 L1219.5,515.0 L1220.0,515.5 L1220.5,516.0 L1221.0,516.5 L1221.5,517.0 L1222.0,517.5 L1222.5,518.0 L1223.0,518.5 L1223.5,519.0 L1224.0,519.5 L1224.5,520.0 L1225.0,520.5 L1225.5,521.0 L1225.5,522.0 L1226.0,522.5 L1227.0,522.5 L1227.5,523.0 L1228.0,523.5 L1228.5,524.0 L1229.0,524.5 L1229.5,525.0 L1230.0,525.5 L1230.5,526.0 L1231.0,526.5 L1231.5,527.0 L1232.0,527.5 L1232.5,528.0 L1233.0,528.5 L1233.5,529.0 L1234.0,529.5 L1234.5,530.0 L1235.0,530.5 L1235.5,531.0 L1236.0,531.5 L1236.5,532.0 L1237.0,532.5 L1237.5,533.0 L1238.0,533.5 L1238.5,534.0 L1239.0,534.5 L1239.5,535.0 L1240.0,535.5 L1240.5,536.0 L1241.0,536.5 L1241.5,537.0 L1242.0,537.5 L1242.5,538.0 L1243.0,538.5 L1243.5,539.0 L1244.0,539.5 L1244.5,540.0 L1245.0,540.5 L1245.5,541.0 L1246.0,541.5 L1246.5,542.0 L1247.0,542.5 L1247.5,543.0 L1248.0,543.5 L1248.5,544.0 L1249.0,544.5 L1249.5,545.0 L1250.0,545.5 L1250.5,546.0 L1251.0,546.5 L1251.5,547.0 L1252.0,547.5 L1252.5,548.0 L1253.0,548.5 L1253.5,549.0 L1254.0,549.5 L1254.5,550.0 L1255.0,550.5 L1255.5,551.0 L1256.0,551.5 L1256.5,552.0 L1257.0,552.5 L1257.5,553.0 L1258.0,553.5 L1258.5,554.0 L1259.0,554.5 L1259.5,555.0 L1260.0,555.5 L1260.5,556.0 L1261.0,556.5 L1261.5,557.0 L1261.5,558.0 L1261.5,559.0 L1261.0,559.5 L1260.0,559.5 L1259.5,560.0 L1259.0,560.5 L1258.5,561.0 L1258.0,561.5 L1257.5,562.0 L1257.0,562.5 L1256.0,562.5 L1255.5,563.0 L1255.0,563.5 L1254.5,564.0 L1254.0,564.5 L1253.5,565.0 L1253.0,565.5 L1252.5,566.0 L1252.0,566.5 L1251.5,567.0 L1251.0,567.5 L1250.5,568.0 L1250.0,568.5 L1249.0,568.5 L1248.5,569.0 L1248.0,569.5 L1247.5,570.0 L1247.0,570.5 L1246.5,571.0 L1246.0,571.5 L1245.0,571.5 L1244.5,572.0 L1244.0,572.5 L1243.5,573.0 L1243.0,573.5 L1242.5,574.0 L1242.0,574.5 L1241.5,575.0 L1241.0,575.5 L1240.0,575.5 L1239.5,576.0 L1239.0,576.5 L1238.5,577.0 L1238.0,577.5 L1237.5,578.0 L1237.0,578.5 L1236.5,579.0 L1236.0,579.5 L1235.0,579.5 L1234.5,580.0 L1234.0,580.5 L1233.5,581.0 L1233.0,581.5 L1232.5,582.0 L1232.0,582.5 L1231.5,583.0 L1231.0,583.5 L1230.0,583.5 L1229.5,584.0 L1229.0,584.5 L1228.5,585.0 L1228.0,585.5 L1227.5,586.0 L1227.0,586.5 L1226.0,586.5 L1225.5,587.0 L1225.0,587.5 L1224.5,588.0 L1224.0,588.5 L1223.5,589.0 L1223.0,589.5 L1222.5,590.0 L1222.0,590.5 L1221.5,591.0 L1221.0,591.5 L1220.0,591.5 L1219.5,592.0 L1219.0,592.5 L1218.5,593.0 L1218.0,593.5 L1217.5,594.0 L1217.0,594.5 L1216.5,595.0 L1216.0,595.5 L1215.0,595.5 L1214.5,596.0 L1214.0,596.5 L1213.5,597.0 L1213.0,597.5 L1212.5,598.0 L1212.0,598.5 L1211.5,599.0 L1211.0,599.5 L1210.0,599.5 L1209.5,600.0 L1209.0,600.5 L1208.5,601.0 L1208.0,601.5 L1207.5,602.0 L1207.0,602.5 L1206.0,602.5 L1205.5,603.0 L1205.0,603.5 L1204.5,604.0 L1204.0,604.5 L1203.5,605.0 L1203.0,605.5 L1202.0,605.5 L1201.5,606.0 L1201.0,606.5 L1200.5,607.0 L1200.0,607.5 L1199.5,608.0 L1199.0,608.5 L1198.5,609.0 L1198.0,609.5 L1197.5,610.0 L1197.0,610.5 L1196.5,611.0 L1196.0,611.5 L1195.0,611.5 L1194.5,612.0 L1194.0,612.5 L1193.5,613.0 L1193.0,613.5 L1192.5,614.0 L1192.0,614.5 L1191.5,615.0 L1191.0,615.5 L1190.0,615.5 L1189.5,616.0 L1189.0,616.5 L1188.5,617.0 L1188.0,617.5 L1187.5,618.0 L1187.0,618.5 L1186.5,619.0 L1186.0,619.5 L1185.0,619.5 L1184.5,620.0 L1184.0,620.5 L1183.5,621.0 L1183.0,621.5 L1182.0,621.5 L1181.5,622.0 L1181.0,622.5 L1180.5,623.0 L1180.0,623.5 L1179.5,624.0 L1179.0,624.5 L1178.5,625.0 L1178.0,625.5 L1177.0,625.5 L1176.5,626.0 L1176.0,626.5 L1175.5,627.0 L1175.0,627.5 L1174.5,628.0 L1174.0,628.5 L1173.5,629.0 L1173.0,629.5 L1172.5,630.0 L1172.0,630.5 L1171.5,631.0 L1171.0,631.5 L1170.0,631.5 L1169.5,632.0 L1169.0,632.5 L1168.5,633.0 L1168.0,633.5 L1167.5,634.0 L1167.0,634.5 L1166.5,635.0 L1166.0,635.5 L1165.0,635.5 L1164.5,636.0 L1164.0,636.5 L1163.5,637.0 L1163.0,637.5 L1162.0,637.5 L1161.5,638.0 L1161.0,638.5 L1160.5,639.0 L1160.0,639.5 L1159.5,640.0 L1159.0,640.5 L1158.5,641.0 L1158.0,641.5 L1157.0,641.5 L1156.5,642.0 L1156.0,642.5 L1155.5,643.0 L1155.0,643.5 L1154.5,644.0 L1154.0,644.5 L1153.5,645.0 L1153.0,645.5 L1152.0,645.5 L1151.5,646.0 L1151.0,646.5 L1150.5,647.0 L1150.0,647.5 L1149.5,648.0 L1149.0,648.5 L1148.5,649.0 L1148.0,649.5 L1147.0,649.5 L1146.5,650.0 L1146.0,650.5 L1145.5,651.0 L1145.0,651.5 L1144.5,652.0 L1144.0,652.5 L1143.5,653.0 L1143.0,653.5 L1142.5,654.0 L1142.0,654.5 L1141.0,654.5 L1140.5,655.0 L1140.0,655.5 L1139.5,656.0 L1139.0,656.5 L1138.5,657.0 L1138.0,657.5 L1137.0,657.5 L1136.5,658.0 L1136.0,658.5 L1135.5,659.0 L1135.0,659.5 L1134.5,660.0 L1134.0,660.5 L1133.5,661.0 L1133.0,661.5 L1132.0,661.5 L1131.5,662.0 L1131.0,662.5 L1130.5,663.0 L1130.0,663.5 L1129.5,664.0 L1129.0,664.5 L1128.5,665.0 L1128.0,665.5 L1127.0,665.5 L1126.5,666.0 L1126.0,666.5 L1125.5,667.0 L1125.0,667.5 L1124.5,668.0 L1124.0,668.5 L1123.5,669.0 L1123.0,669.5 L1122.0,669.5 L1121.5,670.0 L1121.0,670.5 L1120.5,671.0 L1120.0,671.5 L1119.5,672.0 L1119.0,672.5 L1118.5,673.0 L1118.0,673.5 L1117.0,673.5 L1116.5,674.0 L1116.0,674.5 L1115.5,675.0 L1115.0,675.5 L1114.5,676.0 L1114.0,676.5 L1113.5,677.0 L1113.0,677.5 L1112.0,677.5 L1111.5,678.0 L1111.0,678.5 L1110.5,679.0 L1110.0,679.5 L1109.5,680.0 L1109.0,680.5 L1108.5,681.0 L1108.0,681.5 L1107.0,681.5 L1106.5,682.0 L1106.0,682.5 L1105.5,683.0 L1105.0,683.5 L1104.5,684.0 L1104.0,684.5 L1103.5,685.0 L1103.0,685.5 L1102.0,685.5 L1101.5,686.0 L1101.0,686.5 L1100.5,687.0 L1100.0,687.5 L1099.5,688.0 L1099.0,688.5 L1098.0,688.5 L1097.5,689.0 L1097.0,689.5 L1096.5,690.0 L1096.0,690.5 L1095.5,691.0 L1095.0,691.5 L1094.0,691.5 L1093.5,692.0 L1093.0,692.5 L1092.5,693.0 L1092.0,693.5 L1091.5,694.0 L1091.0,694.5 L1090.5,695.0 L1090.0,695.5 L1089.5,696.0 L1089.0,696.5 L1088.5,697.0 L1088.0,697.5 L1087.0,697.5 L1086.5,698.0 L1086.0,698.5 L1085.5,699.0 L1085.0,699.5 L1084.5,700.0 L1084.0,700.5 L1083.5,701.0 L1083.0,701.5 L1082.0,701.5 L1081.5,702.0 L1081.0,702.5 L1080.5,703.0 L1080.0,703.5 L1079.5,704.0 L1079.0,704.5 L1078.0,704.5 L1077.5,705.0 L1077.0,705.5 L1076.5,706.0 L1076.0,706.5 L1075.5,707.0 L1075.0,707.5 L1074.0,707.5 L1073.5,708.0 L1073.0,708.5 L1072.5,709.0 L1072.0,709.5 L1071.5,710.0 L1071.0,710.5 L1070.5,711.0 L1070.0,711.5 L1069.0,711.5 L1068.5,712.0 L1068.0,712.5 L1067.5,713.0 L1067.0,713.5 L1066.5,714.0 L1066.0,714.5 L1065.5,715.0 L1065.0,715.5 L1064.5,716.0 L1064.0,716.5 L1063.5,717.0 L1063.0,717.5 L1062.0,717.5 L1061.5,718.0 L1061.0,718.5 L1060.5,719.0 L1060.0,719.5 L1059.5,720.0 L1059.0,720.5 L1058.5,721.0 L1058.0,721.5 L1057.0,721.5 L1056.5,722.0 L1056.0,722.5 L1055.5,723.0 L1055.0,723.5 L1054.0,723.5 L1053.5,724.0 L1053.0,724.5 L1052.5,725.0 L1052.0,725.5 L1051.5,726.0 L1051.0,726.5 L1050.5,727.0 L1050.0,727.5 L1049.0,727.5 L1048.5,728.0 L1048.0,728.5 L1047.5,729.0 L1047.0,729.5 L1046.5,730.0 L1046.0,730.5 L1045.5,731.0 L1045.0,731.5 L1044.0,731.5 L1043.5,732.0 L1043.0,732.5 L1042.5,733.0 L1042.0,733.5 L1041.5,734.0 L1041.0,734.5 L1040.5,735.0 L1040.0,735.5 L1039.5,736.0 L1039.0,736.5 L1038.0,736.5 L1037.5,737.0 L1037.0,737.5 L1036.5,738.0 L1036.0,738.5 L1035.5,739.0 L1035.0,739.5 L1034.0,739.5 L1033.5,740.0 L1033.0,740.5 L1032.5,741.0 L1032.0,741.5 L1031.5,742.0 L1031.0,742.5 L1030.5,743.0 L1030.0,743.5 L1029.0,743.5 L1028.5,744.0 L1028.0,744.5 L1027.5,745.0 L1027.0,745.5 L1026.5,746.0 L1026.0,746.5 L1025.5,747.0 L1025.0,747.5 Z" fill="black"/>
</svg>